<?xml version="1.0" standalone="no"?>
<!DOCTYPE svg PUBLIC "-//W3C//DTD SVG 20010904//EN"
 "http://www.w3.org/TR/2001/REC-SVG-20010904/DTD/svg10.dtd">
<svg version="1.0" xmlns="http://www.w3.org/2000/svg"
 width="1132.000000pt" height="1132.000000pt" viewBox="0 0 1132.000000 1132.000000"
 preserveAspectRatio="xMidYMid meet">
<metadata>
Created by potrace 1.14, written by Peter Selinger 2001-2017
</metadata>
<g transform="translate(0.000000,1132.000000) scale(0.100000,-0.100000)"
fill="#000000" stroke="none">
<path d="M1230 11309 c-30 -4 -58 -5 -62 -3 -3 2 -9 0 -13 -6 -3 -5 -15 -10
-26 -10 -40 0 -125 -43 -160 -81 -21 -22 -42 -59 -50 -86 -24 -84 -15 -399 16
-523 3 -14 8 -38 10 -55 5 -35 12 -69 19 -93 3 -9 7 -28 10 -42 9 -46 46 -184
73 -265 14 -44 26 -84 28 -90 2 -10 8 -26 28 -80 7 -16 12 -33 12 -37 0 -3 3
-10 8 -14 4 -4 7 -13 7 -21 0 -7 8 -32 19 -56 10 -23 38 -87 62 -142 24 -55
63 -137 87 -182 23 -46 40 -83 37 -83 -3 0 3 -10 15 -22 11 -12 20 -26 20 -30
0 -17 129 -214 209 -318 123 -161 242 -281 386 -387 81 -61 243 -153 268 -153
9 0 17 -4 17 -10 0 -5 9 -10 19 -10 11 0 23 -4 26 -10 3 -5 17 -10 30 -10 13
0 27 -5 30 -11 4 -6 12 -8 19 -6 6 2 22 0 36 -6 28 -11 43 -15 80 -21 14 -2
36 -6 50 -10 21 -5 121 -13 197 -15 l21 -1 -22 -42 c-22 -43 -107 -252 -110
-272 -1 -6 -4 -15 -8 -21 -6 -11 -60 -181 -59 -190 0 -2 -5 -19 -10 -37 -10
-32 -14 -50 -23 -95 -4 -21 -42 -78 -73 -110 -6 -7 -26 -35 -44 -63 -18 -27
-36 -50 -39 -50 -4 0 -13 -13 -20 -30 -7 -16 -16 -30 -21 -30 -5 0 -9 -5 -9
-10 0 -6 -15 -32 -33 -58 -18 -26 -46 -69 -62 -96 -67 -112 -96 -162 -108
-186 -6 -14 -14 -27 -18 -30 -5 -4 -18 -35 -21 -50 -1 -3 -8 -11 -15 -18 -7
-7 -13 -20 -13 -28 0 -8 -4 -14 -10 -14 -5 0 -10 -6 -10 -13 0 -8 -18 -49 -39
-93 -55 -112 -91 -194 -91 -210 0 -8 -5 -14 -11 -14 -5 0 -8 -4 -4 -9 3 -5 1
-12 -3 -15 -5 -3 -15 -27 -22 -53 -8 -27 -20 -58 -27 -69 -8 -12 -13 -26 -11
-30 1 -5 -3 -18 -8 -29 -11 -20 -22 -53 -69 -200 -36 -117 -95 -356 -90 -366
3 -4 1 -10 -5 -14 -6 -4 -8 -10 -5 -15 3 -5 1 -11 -5 -15 -6 -4 -8 -10 -5 -14
2 -5 0 -23 -5 -41 -5 -18 -12 -58 -16 -89 -3 -31 -8 -59 -10 -62 -5 -9 -18
-98 -30 -209 -3 -25 -7 -61 -9 -80 -20 -177 -27 -638 -12 -820 11 -132 33
-327 43 -375 3 -11 7 -36 10 -55 8 -53 13 -82 19 -110 7 -34 16 -81 20 -105 2
-11 6 -31 10 -45 3 -14 8 -36 11 -50 2 -14 7 -32 10 -40 3 -8 8 -26 10 -40 3
-14 8 -36 13 -50 7 -21 32 -103 36 -120 1 -3 5 -21 9 -40 5 -19 13 -41 20 -49
6 -8 10 -16 8 -18 -5 -6 21 -93 29 -99 5 -3 9 -13 9 -23 0 -15 13 -51 55 -156
5 -11 7 -23 7 -27 -1 -5 3 -8 9 -8 6 0 9 -7 5 -15 -3 -8 -1 -15 4 -15 6 0 9
-3 8 -7 -1 -9 5 -25 51 -127 58 -128 114 -241 135 -271 12 -16 19 -30 17 -30
-3 0 12 -28 32 -63 20 -35 37 -67 37 -73 0 -5 5 -9 10 -9 6 0 10 -4 10 -9 0
-12 122 -205 132 -209 5 -2 8 -10 8 -18 0 -8 5 -14 10 -14 6 0 10 -7 10 -15 0
-8 5 -15 10 -15 6 0 10 -5 10 -10 0 -6 30 -50 67 -98 37 -48 81 -105 97 -127
17 -22 36 -44 41 -50 6 -7 33 -38 60 -70 128 -150 404 -425 427 -425 5 0 6 -4
3 -10 -3 -5 0 -10 8 -10 31 0 28 -33 -6 -69 -19 -20 -39 -43 -46 -51 -6 -8
-23 -28 -36 -45 -14 -16 -25 -36 -25 -42 0 -7 -4 -13 -9 -13 -10 0 -71 -103
-113 -191 -36 -76 -96 -266 -104 -324 -1 -11 -5 -42 -9 -70 -11 -79 -13 -225
-3 -231 4 -3 6 -9 3 -14 -7 -11 28 -113 47 -135 69 -84 134 -129 238 -165 36
-12 72 -25 80 -27 8 -3 22 -7 30 -8 8 -1 35 -6 60 -10 25 -4 56 -9 70 -11 196
-28 1358 -27 1605 2 22 2 56 6 75 8 19 2 42 7 50 10 8 3 33 7 55 10 52 6 157
35 173 48 6 6 12 8 12 4 0 -13 121 59 157 94 51 48 82 87 76 93 -2 3 2 16 11
29 15 24 24 55 25 93 1 19 8 20 221 20 121 0 221 -3 221 -7 1 -5 2 -11 4 -15
1 -5 5 -26 10 -47 4 -22 17 -56 28 -75 22 -37 67 -97 67 -87 0 3 11 -6 24 -19
64 -64 256 -130 436 -151 25 -3 61 -7 80 -9 117 -15 307 -20 805 -20 554 0
754 7 855 30 14 3 39 7 55 9 27 4 104 27 145 43 8 4 17 7 20 8 24 6 95 51 124
78 19 19 37 32 39 30 2 -2 22 31 43 73 37 74 39 82 41 183 3 109 -18 272 -42
342 -8 22 -14 41 -15 44 0 3 -1 7 -1 10 -1 3 -3 10 -4 15 -1 6 -3 11 -5 13 -1
1 -3 9 -5 17 -2 8 -13 38 -26 65 -12 28 -23 55 -24 60 -6 23 -91 164 -131 218
-24 31 -44 59 -44 62 0 3 -21 26 -46 51 l-47 46 53 46 c83 74 319 311 380 382
30 35 67 77 82 92 14 15 24 28 22 28 -3 0 2 8 11 17 10 9 43 51 74 92 31 42
58 78 61 81 16 14 144 206 142 213 -1 4 3 7 10 7 6 0 8 3 5 6 -4 4 3 15 15 25
11 11 17 19 12 19 -5 0 -4 4 2 8 6 4 21 25 33 47 12 22 30 54 41 72 52 87 161
298 159 309 0 4 3 10 8 13 8 5 118 254 138 311 1 3 5 12 8 20 37 86 106 298
99 305 -3 3 -1 5 4 5 5 0 10 9 11 19 1 11 9 40 17 65 9 25 18 55 20 68 3 13
19 79 35 148 16 69 32 139 35 155 3 17 8 44 11 60 19 97 24 138 19 146 -3 5 0
9 6 9 6 0 9 4 6 9 -4 5 -2 21 4 36 7 19 7 24 -2 19 -7 -4 -8 -3 -4 4 13 22 25
129 42 377 5 75 8 480 4 480 -1 0 -3 29 -6 65 -9 154 -27 329 -37 375 -3 11
-8 49 -12 85 -4 36 -9 69 -12 73 -3 5 -6 23 -8 41 -1 18 -4 37 -8 42 -3 5 -8
30 -11 55 -3 25 -7 52 -10 60 -3 7 -8 25 -11 39 -2 14 -12 52 -20 85 -9 33
-17 67 -19 75 -17 66 -46 161 -55 178 -6 10 -8 22 -6 24 3 3 -2 21 -10 41 -8
20 -16 40 -16 44 -1 5 -5 17 -9 28 -4 11 -20 54 -35 95 -15 41 -30 84 -35 95
-4 11 -18 45 -30 75 -54 132 -146 322 -222 459 -32 58 -58 108 -58 112 0 3 -7
12 -15 19 -9 7 -23 29 -32 49 -9 20 -19 38 -22 41 -13 11 -71 101 -71 109 0 4
-9 16 -20 26 -11 10 -20 22 -20 27 0 5 -5 14 -10 21 -6 7 -40 53 -77 102 -76
102 -83 111 -100 128 -7 7 -26 57 -44 112 -17 55 -34 107 -37 115 -3 8 -7 20
-7 25 -1 6 -7 23 -14 39 -6 16 -13 36 -15 45 -4 20 -6 26 -69 176 -27 66 -54
126 -60 133 -6 8 -5 12 4 13 110 7 268 37 330 63 20 8 39 12 43 9 3 -4 6 -1 6
6 0 7 4 10 9 7 13 -8 212 96 299 157 135 95 256 212 385 372 84 105 217 302
217 322 0 6 4 13 9 15 9 3 121 219 165 318 15 36 37 84 47 107 10 24 19 47 19
51 0 5 7 23 15 40 9 17 18 41 20 53 2 11 9 27 16 35 6 8 9 14 5 14 -3 0 0 15
7 33 28 66 88 277 82 287 -3 6 -2 10 4 10 5 0 13 19 17 43 9 48 10 55 14 62 1
3 4 14 5 25 1 11 4 22 5 25 1 3 3 8 4 13 6 23 16 82 22 116 3 21 8 48 10 60
23 107 25 389 4 461 -27 90 -83 132 -215 163 -32 7 -243 7 -320 -1 -74 -7 -99
-10 -180 -22 -27 -5 -59 -9 -70 -11 -11 -1 -20 -3 -20 -4 0 -2 -28 -8 -65 -15
-43 -8 -82 -18 -245 -61 -71 -20 -154 -44 -183 -55 -28 -10 -55 -19 -60 -20
-4 -1 -17 -5 -30 -10 -13 -5 -28 -9 -33 -9 -5 0 -28 -9 -52 -19 -23 -11 -87
-37 -143 -59 -55 -22 -128 -54 -161 -70 -34 -16 -64 -27 -67 -24 -4 3 -6 0 -6
-6 0 -6 -16 -16 -35 -23 -19 -7 -35 -17 -35 -23 0 -5 -3 -7 -6 -3 -3 3 -22 -4
-42 -15 -21 -11 -62 -34 -92 -51 -30 -16 -63 -37 -72 -45 -10 -8 -18 -12 -18
-9 0 13 -235 -151 -370 -259 -41 -32 -260 -254 -286 -289 -16 -22 -39 -51 -51
-64 -11 -13 -27 -35 -35 -50 -7 -14 -21 -35 -31 -45 -9 -11 -17 -26 -17 -33 0
-7 -3 -13 -7 -13 -5 0 -17 -19 -28 -43 -11 -23 -22 -44 -25 -47 -3 -3 -16 -28
-29 -57 l-24 -51 -25 30 c-31 37 -151 151 -210 200 -62 51 -151 118 -156 118
-4 0 -16 9 -28 20 -12 11 -28 20 -35 20 -7 0 -13 4 -13 8 0 5 -12 15 -27 23
-16 7 -51 28 -80 46 -57 36 -317 163 -334 163 -5 0 -29 9 -51 20 -23 11 -50
20 -59 20 -10 0 -21 5 -24 10 -3 6 -12 10 -20 10 -8 0 -26 5 -42 12 -15 6 -32
12 -38 13 -5 0 -17 4 -25 7 -47 18 -300 79 -300 72 0 -3 -8 -1 -17 4 -10 6
-43 13 -73 17 -30 4 -68 9 -85 12 -16 3 -40 5 -52 5 -13 0 -23 3 -23 7 0 3
-17 7 -38 7 -20 1 -73 5 -117 10 -44 5 -174 9 -290 8 -223 0 -324 -7 -450 -31
-16 -3 -41 -7 -55 -8 -14 -2 -25 -4 -25 -5 0 -2 -9 -4 -20 -5 -56 -8 -192 -43
-218 -56 -20 -11 -35 -45 -43 -98 -3 -20 -8 -47 -10 -61 -3 -14 -6 -32 -6 -40
0 -8 -4 -37 -9 -65 -14 -77 -23 -147 -24 -185 0 -19 -3 -37 -6 -40 -4 -3 -9
-27 -13 -55 -3 -27 -9 -63 -12 -80 -3 -16 -6 -38 -7 -48 -1 -11 -32 -34 -87
-64 -47 -25 -97 -55 -112 -65 -16 -11 -28 -17 -28 -13 0 3 -10 -3 -22 -14 -16
-16 -25 -18 -35 -10 -7 6 -13 17 -13 25 0 18 -80 195 -98 217 -8 9 -12 17 -9
17 4 0 -17 35 -46 78 -82 120 -101 146 -114 155 -7 4 -13 12 -13 17 0 5 -10
20 -22 33 -168 177 -218 225 -318 307 -30 25 -61 51 -68 57 -7 7 -17 13 -20
13 -4 0 -18 10 -32 23 -14 12 -42 33 -63 46 -21 13 -44 30 -52 38 -8 8 -15 12
-15 8 0 -5 -12 3 -44 32 -8 7 -16 9 -20 6 -3 -4 -6 -1 -6 5 0 7 -7 12 -15 12
-8 0 -15 4 -15 8 0 5 -16 14 -35 22 -19 8 -35 17 -35 21 0 4 -8 9 -17 12 -17
6 -101 51 -133 72 -8 5 -17 10 -20 11 -3 0 -57 25 -120 56 -63 30 -164 74
-225 97 -60 24 -119 47 -130 51 -11 5 -69 24 -130 43 -95 30 -127 39 -180 53
-48 12 -198 44 -229 48 -21 4 -48 8 -60 11 -60 13 -115 17 -261 19 -88 1 -185
-1 -215 -5z"/>
</g>
</svg>
